<svg xmlns="http://www.w3.org/2000/svg" data-name="Layer 2" width="58.49" height="40.49"><rect width="100%" height="100%" fill="none"/><g class="currentLayer"><path d="M55.224.245h-52a3 3 0 00-3 3v34a3 3 0 003 3h52a3 3 0 003-3v-34a3 3 0 00-3-3zm-53 10h54v2h-54zm1-8h52a1 1 0 011 1v5h-54v-5a1 1 0 011-1zm52 36h-52a1 1 0 01-1-1v-23h54v23a1 1 0 01-1 1z"/><path d="M19.224 27.245h-12a1 1 0 000 2h12a1 1 0 000-2zM19.224 32.245h-12a1 1 0 000 2h12a1 1 0 000-2zM48.224 26.245a4 4 0 00-3.5 2.1 4 4 0 100 3.8 4 4 0 103.5-5.9zm-7 6a2 2 0 112-2 2 2 0 01-2 2zm7 0a2 2 0 112-2 2 2 0 01-2 2z"/></g></svg>