<svg xmlns="http://www.w3.org/2000/svg" width="494" height="494"><rect width="100%" height="100%" fill="none"/><g class="currentLayer"><path d="M379.274 133.307c-5.5-2.3-11.6-2.5-17.2-.5v-105.4c0-13.2-10.8-24-24-24h-176c-13.2 0-24 10.8-24 24v154.5c-5.2 1.4-9.9 4.1-13.7 7.9l-43.3 43.3c-4.5 4.5-7 10.6-7 17v68.1c0 6.4-2.5 12.5-7 17l-62.6 62.6 11.3 11.3 62.6-62.7c7.5-7.5 11.7-17.7 11.7-28.3v-68.1c0-2.1.8-4.2 2.3-5.7l43.3-43.3c5.7-5.7 15-5.7 20.7 0s5.7 15 0 20.7l-27.3 27.4c-4.5 4.5-7 10.6-7 17v28.7l10.9 10.9c13.5 13.5 21.1 31.8 21.1 50.9v22.8c0 13.2 10.8 24 24 24h20.7l-9 9c-4.5 4.5-10.6 7-17 7h-13.5c-10.6 0-20.8 4.2-28.3 11.7l-46.6 46.6 11.3 11.3 46.6-46.6c4.5-4.5 10.6-7 17-7h13.5c10.6 0 20.8-4.2 28.3-11.7l20.3-20.3h116.7c13.2 0 24-10.8 24-24v-38.5c3.4-1.2 6.4-3.2 9-5.7l16-16c4.5-4.5 7-10.6 7-17v-2.8c.1-9.3-5.3-17.7-13.7-21.6l6.6-6.6c4.5-4.5 7-10.6 7-17v-2.8c.1-9.3-5.3-17.7-13.7-21.6l6.6-6.6c4.5-4.5 7-10.6 7-17v-2.8c.1-9.3-5.3-17.7-13.7-21.6l6.6-6.6c4.5-4.5 7-10.6 7-17v-2.8c.4-9.7-5.5-18.5-14.5-22.1zm-75.4-113.9l-2.5 9.9c-.9 3.6-4.1 6.1-7.8 6.1h-87c-3.7 0-6.9-2.5-7.8-6.1l-2.5-9.9h107.6zm42.2 360c0 4.4-3.6 8-8 8h-160c-4.4 0-8-3.6-8-8v-22.9c.1-23.4-9.2-45.8-25.8-62.2l-6.2-6.2v-22.1c0-2.1.8-4.2 2.3-5.7l27.3-27.3c12-11.9 12-31.3 0-43.3-3.8-3.8-8.5-6.5-13.7-7.9v-154.4c0-4.4 3.6-8 8-8h17.8l3.5 13.8c2.7 10.7 12.3 18.2 23.3 18.2h87c11 0 20.6-7.5 23.3-18.2l3.5-13.8h17.7c4.4 0 8 3.6 8 8v118.1l-9 9c-4.5 4.5-7 10.6-7 17v2.7c-.1 9.3 5.3 17.7 13.7 21.6l-6.6 6.6c-4.5 4.5-7 10.6-7 17v2.7c-.1 9.3 5.3 17.7 13.7 21.6l-6.6 6.6c-4.5 4.5-7 10.6-7 17v2.7c-.1 9.3 5.3 17.7 13.7 21.6l-6.6 6.6c-4.5 4.5-7 10.6-7 17v2.7c-.1 9.7 5.8 18.5 14.8 22.2.4.2.8.3 1.2.5v38.8zm32-77.2c0 2.1-.8 4.2-2.3 5.7l-16 16c-3.1 3.1-8.2 3.1-11.3 0-1.5-1.5-2.3-3.5-2.3-5.7v-2.8c0-2.1.8-4.2 2.3-5.7l16-16c1.4-1.5 3.4-2.4 5.5-2.4 1.1 0 2.2.2 3.2.6 3 1.2 5 4.1 4.9 7.4v2.9zm0-48c0 2.1-.8 4.2-2.3 5.7l-16 16c-3.1 3.1-8.2 3.1-11.3 0-1.5-1.5-2.3-3.5-2.3-5.7v-2.8c0-2.1.8-4.2 2.3-5.7l16-16c1.4-1.5 3.4-2.4 5.5-2.4 1.1 0 2.2.2 3.2.6 3 1.2 5 4.1 4.9 7.4v2.9zm0-48c0 2.1-.8 4.2-2.3 5.7l-16 16c-3.1 3.1-8.2 3.1-11.3 0-1.5-1.5-2.3-3.5-2.3-5.7v-2.8c0-2.1.8-4.2 2.3-5.7l16-16c1.4-1.5 3.4-2.4 5.5-2.4 1.1 0 2.2.2 3.2.6 3 1.2 5 4.1 4.9 7.4v2.9zm0-48c0 2.1-.8 4.2-2.3 5.7l-16 16c-3.1 3.1-8.2 3.1-11.3 0-1.5-1.5-2.3-3.5-2.3-5.7v-2.8c0-2.1.8-4.2 2.3-5.7l16-16c1.4-1.5 3.4-2.4 5.5-2.4 1.1 0 2.2.2 3.2.6 3 1.2 5 4.1 4.9 7.4v2.9zM420.674 174.407c17.8 44.3 17.8 93.7 0 138l14.8 6c19.4-48.1 19.4-101.9 0-150l-14.8 6zM472.174 152.407l-14.8 6.1c22.2 54.5 22.2 115.5 0 169.9l14.8 6.1c23.9-58.4 23.9-123.8 0-182.1z"/><path d="M79.474 174.407l-14.8-6c-7.5 18.6-12.2 38.3-13.9 58.3l15.9 1.3c1.5-18.4 5.8-36.5 12.8-53.6zM42.774 328.407c-22.2-54.5-22.2-115.5 0-169.9l-14.8-6.1c-23.9 58.3-23.9 123.7 0 182l14.8-6z"/></g><g fill-rule="evenodd"><path d="M247.035 165.22c-1.928 13.571-3.47 24.997-6.246 42.79 7.502-.162 24.528 2.825 28.276-21.493 3.102-20.231-10.727-22.105-22.03-21.297z"/><path d="M312.005 263.056c2.92 6.497-.02 14.711-6.11 18.018-3.496 1.9-7.488 3.666-11.473 4.657a96.267 96.267 0 01-20.069 2.607c-10.814 0-21.656-6.192-26.327-13.728-1.208 2.6-5.567 7.828-13.205 10.286-4.827 1.561-10.645 3.442-22.79 3.428-10.883-.007-17.088-4.942-20.367-9.083-5.227-6.586-5.995-14.95-4.976-20.585l.054-.271c4.107-20.605 9.722-58.066 12.308-76.837l.028-.184c.706-5.207 1.425-10.414 1.853-15.655.21-2.641.353-5.295.38-7.943.027-2.505-.203-5.004-.183-7.509.027-2.362.407-4.752 1.514-6.843 1.799-3.374 5.092-6.035 8.574-7.196 3.822-1.277 7.814-1.786 11.786-2.247a314.824 314.824 0 0112.206-1.222 207.043 207.043 0 0114.936-.557c8.527-.007 17.108.136 25.513 1.867 8.56 1.765 17.21 5.14 23.965 11.052 4.63 4.053 8.303 9.165 11.066 14.76 2.417 4.928 3.401 10.115 3.985 14.08a58.86 58.86 0 01-.808 21.378 46.864 46.864 0 01-6.198 14.406c-3.218 4.997-7.346 9.532-12.607 13.85 3.204 9.3 11.555 27.468 16.945 39.47zM216.24 151.2c.204 3.449.23 6.925.082 10.387-.15 3.537-.455 7.06-.85 10.577-.386 3.503-.854 6.993-1.33 10.482l-.156 1.14a2280.284 2280.284 0 01-4.718 32.683c-1.738 11.433-3.687 22.804-5.635 34.19-.903 5.308-2.933 12.11-.156 17.175 2.471 4.522 8.812 5.071 13.232 4.617 16.096-1.643 18.656-5.221 18.656-5.221-3.212-3.557-.421-19.77 2.81-41.562h11.44l11.975 36.219s3.53 11.222 13.34 10.679c12.567-.692 21.813-3.564 23.144-5.16-3.87-2.158-14.936-29.83-20.964-50.15 2.92-1.778 5.75-3.713 8.418-5.879 3.646-2.973 7.027-6.402 9.613-10.428 1.86-2.892 3.28-6.076 4.094-9.457.428-1.785.665-3.652.815-5.478a42.25 42.25 0 00-.299-9.668c-.448-3.068-1.12-6.483-2.492-9.253-2.545-5.18-6.15-9.702-11.066-12.594-8.296-4.874-17.855-5.804-27.176-6.313a171.984 171.984 0 00-30.299.99c-1.127.137-12.525 1.141-12.478 2.024z"/></g></svg>