<svg xmlns="http://www.w3.org/2000/svg" width="494" height="494"><rect width="100%" height="100%" fill="none"/><g class="currentLayer"><path d="M379.274 133.307c-5.5-2.3-11.6-2.5-17.2-.5v-105.4c0-13.2-10.8-24-24-24h-176c-13.2 0-24 10.8-24 24v154.5c-5.2 1.4-9.9 4.1-13.7 7.9l-43.3 43.3c-4.5 4.5-7 10.6-7 17v68.1c0 6.4-2.5 12.5-7 17l-62.6 62.6 11.3 11.3 62.6-62.7c7.5-7.5 11.7-17.7 11.7-28.3v-68.1c0-2.1.8-4.2 2.3-5.7l43.3-43.3c5.7-5.7 15-5.7 20.7 0s5.7 15 0 20.7l-27.3 27.4c-4.5 4.5-7 10.6-7 17v28.7l10.9 10.9c13.5 13.5 21.1 31.8 21.1 50.9v22.8c0 13.2 10.8 24 24 24h20.7l-9 9c-4.5 4.5-10.6 7-17 7h-13.5c-10.6 0-20.8 4.2-28.3 11.7l-46.6 46.6 11.3 11.3 46.6-46.6c4.5-4.5 10.6-7 17-7h13.5c10.6 0 20.8-4.2 28.3-11.7l20.3-20.3h116.7c13.2 0 24-10.8 24-24v-38.5c3.4-1.2 6.4-3.2 9-5.7l16-16c4.5-4.5 7-10.6 7-17v-2.8c.1-9.3-5.3-17.7-13.7-21.6l6.6-6.6c4.5-4.5 7-10.6 7-17v-2.8c.1-9.3-5.3-17.7-13.7-21.6l6.6-6.6c4.5-4.5 7-10.6 7-17v-2.8c.1-9.3-5.3-17.7-13.7-21.6l6.6-6.6c4.5-4.5 7-10.6 7-17v-2.8c.4-9.7-5.5-18.5-14.5-22.1zm-75.4-113.9l-2.5 9.9c-.9 3.6-4.1 6.1-7.8 6.1h-87c-3.7 0-6.9-2.5-7.8-6.1l-2.5-9.9h107.6zm42.2 360c0 4.4-3.6 8-8 8h-160c-4.4 0-8-3.6-8-8v-22.9c.1-23.4-9.2-45.8-25.8-62.2l-6.2-6.2v-22.1c0-2.1.8-4.2 2.3-5.7l27.3-27.3c12-11.9 12-31.3 0-43.3-3.8-3.8-8.5-6.5-13.7-7.9v-154.4c0-4.4 3.6-8 8-8h17.8l3.5 13.8c2.7 10.7 12.3 18.2 23.3 18.2h87c11 0 20.6-7.5 23.3-18.2l3.5-13.8h17.7c4.4 0 8 3.6 8 8v118.1l-9 9c-4.5 4.5-7 10.6-7 17v2.7c-.1 9.3 5.3 17.7 13.7 21.6l-6.6 6.6c-4.5 4.5-7 10.6-7 17v2.7c-.1 9.3 5.3 17.7 13.7 21.6l-6.6 6.6c-4.5 4.5-7 10.6-7 17v2.7c-.1 9.3 5.3 17.7 13.7 21.6l-6.6 6.6c-4.5 4.5-7 10.6-7 17v2.7c-.1 9.7 5.8 18.5 14.8 22.2.4.2.8.3 1.2.5v38.8zm32-77.2c0 2.1-.8 4.2-2.3 5.7l-16 16c-3.1 3.1-8.2 3.1-11.3 0-1.5-1.5-2.3-3.5-2.3-5.7v-2.8c0-2.1.8-4.2 2.3-5.7l16-16c1.4-1.5 3.4-2.4 5.5-2.4 1.1 0 2.2.2 3.2.6 3 1.2 5 4.1 4.9 7.4v2.9zm0-48c0 2.1-.8 4.2-2.3 5.7l-16 16c-3.1 3.1-8.2 3.1-11.3 0-1.5-1.5-2.3-3.5-2.3-5.7v-2.8c0-2.1.8-4.2 2.3-5.7l16-16c1.4-1.5 3.4-2.4 5.5-2.4 1.1 0 2.2.2 3.2.6 3 1.2 5 4.1 4.9 7.4v2.9zm0-48c0 2.1-.8 4.2-2.3 5.7l-16 16c-3.1 3.1-8.2 3.1-11.3 0-1.5-1.5-2.3-3.5-2.3-5.7v-2.8c0-2.1.8-4.2 2.3-5.7l16-16c1.4-1.5 3.4-2.4 5.5-2.4 1.1 0 2.2.2 3.2.6 3 1.2 5 4.1 4.9 7.4v2.9zm0-48c0 2.1-.8 4.2-2.3 5.7l-16 16c-3.1 3.1-8.2 3.1-11.3 0-1.5-1.5-2.3-3.5-2.3-5.7v-2.8c0-2.1.8-4.2 2.3-5.7l16-16c1.4-1.5 3.4-2.4 5.5-2.4 1.1 0 2.2.2 3.2.6 3 1.2 5 4.1 4.9 7.4v2.9z"/><path d="M186.074 150.107v29.3h8v56h-8v48h128v-48h-8v-56h8v-29.3l-64-27.4-64 27.4zm112 117.3h-96v-16h96v16zm-88-32v-56h16v56h-16zm32 0v-56h16v56h-16zm32 0v-56h16v56h-16zm24-72h-96v-2.7l48-20.6 48 20.6v2.7zM420.674 174.407c17.8 44.3 17.8 93.7 0 138l14.8 6c19.4-48.1 19.4-101.9 0-150l-14.8 6zM472.174 152.407l-14.8 6.1c22.2 54.5 22.2 115.5 0 169.9l14.8 6.1c23.9-58.4 23.9-123.8 0-182.1zM79.474 174.407l-14.8-6c-7.5 18.6-12.2 38.3-13.9 58.3l15.9 1.3c1.5-18.4 5.8-36.5 12.8-53.6zM42.774 328.407c-22.2-54.5-22.2-115.5 0-169.9l-14.8-6.1c-23.9 58.3-23.9 123.7 0 182l14.8-6z"/></g></svg>