<svg xmlns="http://www.w3.org/2000/svg" width="65.402" height="64.701"><rect width="100%" height="100%" fill="none"/><g class="currentLayer"><g><path d="M61.052 14.065a.95.95 0 001.9 0 .95.95 0 00-1.9 0zM20.976 4.99c-3.17 0-5.75 2.58-5.75 5.75s2.58 5.751 5.75 5.751 5.75-2.58 5.75-5.75-2.58-5.75-5.75-5.75zm0 9.501a3.755 3.755 0 01-3.75-3.75 3.755 3.755 0 013.75-3.75 3.755 3.755 0 013.75 3.75 3.755 3.755 0 01-3.75 3.75z"/><path d="M64.931 3.555a1 1 0 00-1-1h-5.417a1 1 0 00-1 1v.585h-2.58a.988.988 0 00-.974.869c-1.02-.117-1.711-.44-5.53-1.809a12.689 12.689 0 00-7.413-.32V1.628a1 1 0 00-1-1c-54.274-.007 15.923 0-38.082 0a1 1 0 00-1 1c-.006 2.039 0 17.968 0 18.229a1 1 0 001 1h38.082a1 1 0 001-1V16.5l4.03-.553c1.468 1.293 3 1.819 4.64 1.819 1.37 0 2.82-.373 4.37-.962a.99.99 0 00.877.544h2.58v.584a1 1 0 001 1h5.417a1 1 0 100-2h-4.417V4.555h4.417a1 1 0 001-1zm-31.46 9.684a3.714 3.714 0 00.711 2.366 7.15 7.15 0 00-1.315 3.248H9.08a7.234 7.234 0 00-6.146-6.15v-3.93A7.234 7.234 0 009.08 2.627h23.787a7.234 7.234 0 006.149 6.146v.828l-2.474.34a3.559 3.559 0 00-3.072 3.298zm5.546-6.497A5.228 5.228 0 0134.9 2.627h4.117v4.115zM7.049 2.627a5.228 5.228 0 01-4.114 4.114V2.627h4.114zM2.935 14.735a5.228 5.228 0 014.115 4.12H2.935v-4.12zm36.082 4.12h-4.123a5.158 5.158 0 01.92-2.06c.627.225 1.29.259 1.69.189l1.513-.208v2.08zm7.06-4.678a.977.977 0 00-.835-.274c-7.227.837-8.173 1.505-9.122.827-.183-.2-.704-.517-.652-1.367a1.558 1.558 0 011.347-1.44l3.327-.458.012-.001 4.68-.64a1.001 1.001 0 00-.272-1.982l-3.544.484-.001-4.366a10.692 10.692 0 016.74.123c4.318 1.547 4.842 1.81 6.177 1.932v7.683c-3.819 1.561-5.867 1.421-7.857-.521zm9.857 1.172V6.14h1.58v9.209h-1.58z"/><path d="M13.92 9.74h-1.656a1 1 0 100 2h1.655a1 1 0 100-2zM29.688 9.74h-1.6a1 1 0 100 2h1.6a1 1 0 100-2zM7.277 45.32H3.119A2.19 2.19 0 00.93 47.508v13.614a2.19 2.19 0 002.188 2.189h4.158a2.19 2.19 0 002.187-2.189v-.734h1.106c.296 0 .584.05.858.15l10.082 3.59a3.388 3.388 0 002.8-.254l13.944-7.947c1.352-.635 1.949-2.261 1.305-3.6a2.704 2.704 0 00-3.527-1.337l-7.576 2.372c-.07-1.514-1.37-2.595-2.796-2.595h-5.34c-3.844-1.275-5.43-2.365-8.436-2.365h-2.42v-.894a2.19 2.19 0 00-2.187-2.188zm0 15.99H3.119a.188.188 0 01-.188-.188V47.508c0-.104.084-.188.188-.188h4.158c.103 0 .187.084.187.188v13.614a.188.188 0 01-.187.189zm4.607-10.908c2.511 0 3.753.903 7.916 2.304.11.04.226.06.343.06h5.517c.425 0 .837.342.811.75a.72.72 0 01-.709.667h-5.927a3.38 3.38 0 00-3.376 3.376v.38a1 1 0 102 0v-.38c0-.759.618-1.376 1.376-1.376h5.927c.61 0 10.949-3.303 11.049-3.35a.702.702 0 01.94.35c.16.33.046.747-.417.97L23.32 62.137a1.39 1.39 0 01-1.147.104L12.11 58.657a4.487 4.487 0 00-1.54-.27H9.465v-7.985h2.42z"/><path d="M51.673 25.67H21.975a1 1 0 00-1 1v20.248a1 1 0 001 1h29.698a1 1 0 001-1V26.67a1 1 0 00-1-1zm-12.184 2v7.157l-2.03-1.662a.998.998 0 00-1.268 0l-2.031 1.663V27.67h5.329zm11.184 18.248H22.975V27.67h9.185v9.27a.998.998 0 001.633.773l3.032-2.481 3.03 2.481a1 1 0 001.634-.773v-9.27h9.184v18.25z"/></g></g></svg>