<svg xmlns="http://www.w3.org/2000/svg" width="8.673" height="8.673"><rect width="100%" height="100%" fill="none"/><g class="currentLayer"><g><path d="M5.283 4.275a.876.876 0 00.3-.66.882.882 0 00-.88-.88h-.22v-.392h-.294v.392h-.44v-.392h-.293v.392h-.424v.294h.425v2.638h-.425v.294h.425v.392h.293V5.96h.44v.392h.294V5.96h.449c.484 0 .88-.395.88-.88a.882.882 0 00-.53-.805zm-1.36-1.246h.779a.587.587 0 010 1.172h-.953V3.029h.175zm1.009 2.637H3.749V4.495H4.93a.585.585 0 010 1.17zM7.454 4.348A3.11 3.11 0 003.912 1.27l.04.29a2.815 2.815 0 013.209 2.78l-.001.029.294-.022z"/><path d="M4.347 7.16a2.817 2.817 0 01-2.813-2.812v-.011l-.293.01a3.11 3.11 0 003.53 3.079l-.04-.291a2.746 2.746 0 01-.384.026z"/><path d="M4.347.17C2.044.17.17 2.044.17 4.348s1.874 4.177 4.177 4.177c2.304 0 4.178-1.873 4.178-4.177S6.65.17 4.347.17zm0 8.062C2.206 8.232.463 6.49.463 4.348S2.206.464 4.347.464c2.143 0 3.885 1.742 3.885 3.884S6.49 8.232 4.347 8.232z"/></g></g></svg>