<svg width="0" height="0" class="hidden">
  <symbol xmlns="http://www.w3.org/2000/svg" viewBox="0 0 38 24" id="american_express">
    <title>American Express</title>
    <g fill="none">
      <path fill="#000" d="M35 0H3C1.3 0 0 1.3 0 3v18c0 1.7 1.4 3 3 3h32c1.7 0 3-1.3 3-3V3c0-1.7-1.4-3-3-3z" opacity=".07"></path>
      <path fill="#006FCF" d="M35 1c1.1 0 2 .9 2 2v18c0 1.1-.9 2-2 2H3c-1.1 0-2-.9-2-2V3c0-1.1.9-2 2-2h32"></path>
      <path fill="#FFF" d="M8.971 10.268l.774 1.876H8.203l.768-1.876zm16.075.078h-2.977v.827h2.929v1.239h-2.923v.922h2.977v.739l2.077-2.245-2.077-2.34-.006.858zm-14.063-2.34h3.995l.887 1.935L16.687 8h10.37l1.078 1.19L29.25 8h4.763l-3.519 3.852 3.483 3.828h-4.834l-1.078-1.19-1.125 1.19H10.03l-.494-1.19h-1.13l-.495 1.19H4L7.286 8h3.43l.267.006zm8.663 1.078h-2.239l-1.5 3.536-1.625-3.536H12.06v4.81L10 9.084H8.007l-2.382 5.512H7.18l.494-1.19h2.596l.494 1.19h2.72v-3.935l1.751 3.941h1.19l1.74-3.929v3.93h1.458l.024-5.52-.001.001zm9.34 2.768l2.531-2.768h-1.822l-1.601 1.726-1.548-1.726h-5.894v5.518h5.81l1.614-1.738 1.548 1.738h1.875l-2.512-2.75h-.001z"></path>
    </g>
  </symbol>
  <symbol xmlns="http://www.w3.org/2000/svg" viewBox="0 0 32 32" id="bch">
    <g fill="none" fill-rule="evenodd">
      <circle cx="16" cy="16" fill="#8dc351" r="16"></circle>
      <path d="M21.207 10.534c-.776-1.972-2.722-2.15-4.988-1.71l-.807-2.813-1.712.491.786 2.74c-.45.128-.908.27-1.363.41l-.79-2.758-1.711.49.805 2.813c-.368.114-.73.226-1.085.328l-.003-.01-2.362.677.525 1.83s1.258-.388 1.243-.358c.694-.199 1.035.139 1.2.468l.92 3.204c.047-.013.11-.029.184-.04l-.181.052 1.287 4.49c.032.227.004.612-.48.752.027.013-1.246.356-1.246.356l.247 2.143 2.228-.64c.415-.117.825-.227 1.226-.34l.817 2.845 1.71-.49-.807-2.815a65.74 65.74 0 001.372-.38l.802 2.803 1.713-.491-.814-2.84c2.831-.991 4.638-2.294 4.113-5.07-.422-2.234-1.724-2.912-3.471-2.836.848-.79 1.213-1.858.642-3.3zm-.65 6.77c.61 2.127-3.1 2.929-4.26 3.263l-1.081-3.77c1.16-.333 4.704-1.71 5.34.508zm-2.322-5.09c.554 1.935-2.547 2.58-3.514 2.857l-.98-3.419c.966-.277 3.915-1.455 4.494.563z" fill="#fff" fill-rule="nonzero"></path>
    </g>
  </symbol>
  <symbol xmlns="http://www.w3.org/2000/svg" viewBox="0 0 32 32" id="btc">
    <g fill="none" fill-rule="evenodd">
      <circle cx="16" cy="16" r="16" fill="#F7931A"></circle>
      <path fill="#FFF" fill-rule="nonzero" d="M23.189 14.02c.314-2.096-1.283-3.223-3.465-3.975l.708-2.84-1.728-.43-.69 2.765c-.454-.114-.92-.22-1.385-.326l.695-2.783L15.596 6l-.708 2.839c-.376-.086-.746-.17-1.104-.26l.002-.009-2.384-.595-.46 1.846s1.283.294 1.256.312c.7.175.826.638.805 1.006l-.806 3.235c.048.012.11.03.18.057l-.183-.045-1.13 4.532c-.086.212-.303.531-.793.41.018.025-1.256-.313-1.256-.313l-.858 1.978 2.25.561c.418.105.828.215 1.231.318l-.715 2.872 1.727.43.708-2.84c.472.127.93.245 1.378.357l-.706 2.828 1.728.43.715-2.866c2.948.558 5.164.333 6.097-2.333.752-2.146-.037-3.385-1.588-4.192 1.13-.26 1.98-1.003 2.207-2.538zm-3.95 5.538c-.533 2.147-4.148.986-5.32.695l.95-3.805c1.172.293 4.929.872 4.37 3.11zm.535-5.569c-.487 1.953-3.495.96-4.47.717l.86-3.45c.975.243 4.118.696 3.61 2.733z"></path>
    </g>
  </symbol>
  <symbol xmlns="http://www.w3.org/2000/svg" viewBox="0 0 32 32" id="dai">
    <g fill="none" fill-rule="evenodd">
      <circle fill="#F4B731" fill-rule="nonzero" cx="16" cy="16" r="16"></circle>
      <path d="M9.277 8h6.552c3.985 0 7.006 2.116 8.13 5.194H26v1.861h-1.611c.031.294.047.594.047.898v.046c0 .342-.02.68-.06 1.01H26v1.86h-2.08C22.767 21.905 19.77 24 15.83 24H9.277v-5.131H7v-1.86h2.277v-1.954H7v-1.86h2.277V8zm1.831 10.869v3.462h4.72c2.914 0 5.078-1.387 6.085-3.462H11.108zm11.366-1.86H11.108v-1.954h11.37c.041.307.063.622.063.944v.045c0 .329-.023.65-.067.964zM15.83 9.665c2.926 0 5.097 1.424 6.098 3.528h-10.82V9.666h4.72z" fill="#FFF"></path>
    </g>
  </symbol>
  <symbol xmlns="http://www.w3.org/2000/svg" viewBox="0 0 38 24" id="diners_club">
    <title>Diners Club</title>
    <path opacity=".07" d="M35 0H3C1.3 0 0 1.3 0 3v18c0 1.7 1.4 3 3 3h32c1.7 0 3-1.3 3-3V3c0-1.7-1.4-3-3-3z"></path>
    <path fill="#fff" d="M35 1c1.1 0 2 .9 2 2v18c0 1.1-.9 2-2 2H3c-1.1 0-2-.9-2-2V3c0-1.1.9-2 2-2h32"></path>
    <path d="M12 12v3.7c0 .3-.2.3-.5.2-1.9-.8-3-3.3-2.3-5.4.4-1.1 1.2-2 2.3-2.4.4-.2.5-.1.5.2V12zm2 0V8.3c0-.3 0-.3.3-.2 2.1.8 3.2 3.3 2.4 5.4-.4 1.1-1.2 2-2.3 2.4-.4.2-.4.1-.4-.2V12zm7.2-7H13c3.8 0 6.8 3.1 6.8 7s-3 7-6.8 7h8.2c3.8 0 6.8-3.1 6.8-7s-3-7-6.8-7z" fill="#3086C8"></path>
  </symbol>
  <symbol xmlns="http://www.w3.org/2000/svg" viewBox="0 0 32 32" id="eos">
    <g fill="none" fill-rule="evenodd">
      <circle cx="16" cy="16" r="16" fill="#000" fill-rule="nonzero"></circle>
      <path stroke="#FFF" stroke-linecap="round" stroke-linejoin="round" stroke-width=".64" d="M10.886 11.61L16 27.667l-7.588-4.754 2.474-11.303L16 4.624v4.9L8.412 22.913h15.183L16.007 9.524v-4.9l5.113 6.986 2.475 11.303-7.588 4.754L21.12 11.61"></path>
    </g>
  </symbol>
  <symbol xmlns="http://www.w3.org/2000/svg" viewBox="0 0 32 32" id="eth">
    <g fill="none" fill-rule="evenodd">
      <circle cx="16" cy="16" r="16" fill="#627EEA"></circle>
      <g fill="#FFF" fill-rule="nonzero">
        <path fill-opacity=".602" d="M16.498 4v8.87l7.497 3.35z"></path>
        <path d="M16.498 4L9 16.22l7.498-3.35z"></path>
        <path fill-opacity=".602" d="M16.498 21.968v6.027L24 17.616z"></path>
        <path d="M16.498 27.995v-6.028L9 17.616z"></path>
        <path fill-opacity=".2" d="M16.498 20.573l7.497-4.353-7.497-3.348z"></path>
        <path fill-opacity=".602" d="M9 16.22l7.498 4.353v-7.701z"></path>
      </g>
    </g>
  </symbol>
  <symbol xmlns="http://www.w3.org/2000/svg" viewBox="0 0 512 512" id="facebook">
    <circle cx="256" cy="256" fill="#3B5998" r="256"></circle>
    <path d="M301.6 151.2h36.3V97h-51.4c-29.6 0-68.1 19-68.1 74.2v43h-49.1v56.1h49.1v146H277v-146h48.8l8.1-56.1H277v-35.7c0-18.4 9-27.3 24.6-27.3z" fill="#FFF"></path>
  </symbol>
  <symbol xmlns="http://www.w3.org/2000/svg" viewBox="0 0 38 24" id="maestro">
    <title>Maestro</title>
    <path opacity=".07" d="M35 0H3C1.3 0 0 1.3 0 3v18c0 1.7 1.4 3 3 3h32c1.7 0 3-1.3 3-3V3c0-1.7-1.4-3-3-3z"></path>
    <path fill="#fff" d="M35 1c1.1 0 2 .9 2 2v18c0 1.1-.9 2-2 2H3c-1.1 0-2-.9-2-2V3c0-1.1.9-2 2-2h32"></path>
    <circle fill="#EB001B" cx="15" cy="12" r="7"></circle>
    <circle fill="#00A2E5" cx="23" cy="12" r="7"></circle>
    <path fill="#7375CF" d="M22 12c0-2.4-1.2-4.5-3-5.7-1.8 1.3-3 3.4-3 5.7s1.2 4.5 3 5.7c1.8-1.2 3-3.3 3-5.7z"></path>
  </symbol>
  <symbol xmlns="http://www.w3.org/2000/svg" viewBox="0 0 38 24" id="mastercard">
    <title>Mastercard</title>
    <path opacity=".07" d="M35 0H3C1.3 0 0 1.3 0 3v18c0 1.7 1.4 3 3 3h32c1.7 0 3-1.3 3-3V3c0-1.7-1.4-3-3-3z"></path>
    <path fill="#fff" d="M35 1c1.1 0 2 .9 2 2v18c0 1.1-.9 2-2 2H3c-1.1 0-2-.9-2-2V3c0-1.1.9-2 2-2h32"></path>
    <circle fill="#EB001B" cx="15" cy="12" r="7"></circle>
    <circle fill="#F79E1B" cx="23" cy="12" r="7"></circle>
    <path fill="#FF5F00" d="M22 12c0-2.4-1.2-4.5-3-5.7-1.8 1.3-3 3.4-3 5.7s1.2 4.5 3 5.7c1.8-1.2 3-3.3 3-5.7z"></path>
  </symbol>
  <symbol xmlns="http://www.w3.org/2000/svg" viewBox="0 0 58.49 40.49" id="placanje_karticama">
    <rect width="100%" height="100%" fill="none"></rect>
    <path d="M55.224.245h-52a3 3 0 00-3 3v34a3 3 0 003 3h52a3 3 0 003-3v-34a3 3 0 00-3-3zm-53 10h54v2h-54zm1-8h52a1 1 0 011 1v5h-54v-5a1 1 0 011-1zm52 36h-52a1 1 0 01-1-1v-23h54v23a1 1 0 01-1 1z"></path>
    <path d="M19.224 27.245h-12a1 1 0 000 2h12a1 1 0 000-2zm0 5h-12a1 1 0 000 2h12a1 1 0 000-2zm29-6a4 4 0 00-3.5 2.1 4 4 0 100 3.8 4 4 0 103.5-5.9zm-7 6a2 2 0 112-2 2 2 0 01-2 2zm7 0a2 2 0 112-2 2 2 0 01-2 2z"></path>
  </symbol>
  <symbol xmlns="http://www.w3.org/2000/svg" viewBox="0 0 8.673 8.673" id="placanje_kriptovalutama">
    <rect width="100%" height="100%" fill="none"></rect>
    <path d="M5.283 4.275a.876.876 0 00.3-.66.882.882 0 00-.88-.88h-.22v-.392h-.294v.392h-.44v-.392h-.293v.392h-.424v.294h.425v2.638h-.425v.294h.425v.392h.293V5.96h.44v.392h.294V5.96h.449c.484 0 .88-.395.88-.88a.882.882 0 00-.53-.805zm-1.36-1.246h.779a.587.587 0 010 1.172h-.953V3.029h.175zm1.009 2.637H3.749V4.495H4.93a.585.585 0 010 1.17zm2.522-1.318A3.11 3.11 0 003.912 1.27l.04.29a2.815 2.815 0 013.209 2.78l-.001.029.294-.022z"></path>
    <path d="M4.347 7.16a2.817 2.817 0 01-2.813-2.812v-.011l-.293.01a3.11 3.11 0 003.53 3.079l-.04-.291a2.746 2.746 0 01-.384.026z"></path>
    <path d="M4.347.17C2.044.17.17 2.044.17 4.348s1.874 4.177 4.177 4.177c2.304 0 4.178-1.873 4.178-4.177S6.65.17 4.347.17zm0 8.062C2.206 8.232.463 6.49.463 4.348S2.206.464 4.347.464c2.143 0 3.885 1.742 3.885 3.884S6.49 8.232 4.347 8.232z"></path>
  </symbol>
  <symbol xmlns="http://www.w3.org/2000/svg" viewBox="0 0 494 494" id="placanje_mobilnim_bankarstvom">
    <rect width="100%" height="100%" fill="none"></rect>
    <path d="M379.274 133.307c-5.5-2.3-11.6-2.5-17.2-.5v-105.4c0-13.2-10.8-24-24-24h-176c-13.2 0-24 10.8-24 24v154.5c-5.2 1.4-9.9 4.1-13.7 7.9l-43.3 43.3c-4.5 4.5-7 10.6-7 17v68.1c0 6.4-2.5 12.5-7 17l-62.6 62.6 11.3 11.3 62.6-62.7c7.5-7.5 11.7-17.7 11.7-28.3v-68.1c0-2.1.8-4.2 2.3-5.7l43.3-43.3c5.7-5.7 15-5.7 20.7 0s5.7 15 0 20.7l-27.3 27.4c-4.5 4.5-7 10.6-7 17v28.7l10.9 10.9c13.5 13.5 21.1 31.8 21.1 50.9v22.8c0 13.2 10.8 24 24 24h20.7l-9 9c-4.5 4.5-10.6 7-17 7h-13.5c-10.6 0-20.8 4.2-28.3 11.7l-46.6 46.6 11.3 11.3 46.6-46.6c4.5-4.5 10.6-7 17-7h13.5c10.6 0 20.8-4.2 28.3-11.7l20.3-20.3h116.7c13.2 0 24-10.8 24-24v-38.5c3.4-1.2 6.4-3.2 9-5.7l16-16c4.5-4.5 7-10.6 7-17v-2.8c.1-9.3-5.3-17.7-13.7-21.6l6.6-6.6c4.5-4.5 7-10.6 7-17v-2.8c.1-9.3-5.3-17.7-13.7-21.6l6.6-6.6c4.5-4.5 7-10.6 7-17v-2.8c.1-9.3-5.3-17.7-13.7-21.6l6.6-6.6c4.5-4.5 7-10.6 7-17v-2.8c.4-9.7-5.5-18.5-14.5-22.1zm-75.4-113.9l-2.5 9.9c-.9 3.6-4.1 6.1-7.8 6.1h-87c-3.7 0-6.9-2.5-7.8-6.1l-2.5-9.9h107.6zm42.2 360c0 4.4-3.6 8-8 8h-160c-4.4 0-8-3.6-8-8v-22.9c.1-23.4-9.2-45.8-25.8-62.2l-6.2-6.2v-22.1c0-2.1.8-4.2 2.3-5.7l27.3-27.3c12-11.9 12-31.3 0-43.3-3.8-3.8-8.5-6.5-13.7-7.9v-154.4c0-4.4 3.6-8 8-8h17.8l3.5 13.8c2.7 10.7 12.3 18.2 23.3 18.2h87c11 0 20.6-7.5 23.3-18.2l3.5-13.8h17.7c4.4 0 8 3.6 8 8v118.1l-9 9c-4.5 4.5-7 10.6-7 17v2.7c-.1 9.3 5.3 17.7 13.7 21.6l-6.6 6.6c-4.5 4.5-7 10.6-7 17v2.7c-.1 9.3 5.3 17.7 13.7 21.6l-6.6 6.6c-4.5 4.5-7 10.6-7 17v2.7c-.1 9.3 5.3 17.7 13.7 21.6l-6.6 6.6c-4.5 4.5-7 10.6-7 17v2.7c-.1 9.7 5.8 18.5 14.8 22.2.4.2.8.3 1.2.5v38.8zm32-77.2c0 2.1-.8 4.2-2.3 5.7l-16 16c-3.1 3.1-8.2 3.1-11.3 0-1.5-1.5-2.3-3.5-2.3-5.7v-2.8c0-2.1.8-4.2 2.3-5.7l16-16c1.4-1.5 3.4-2.4 5.5-2.4 1.1 0 2.2.2 3.2.6 3 1.2 5 4.1 4.9 7.4v2.9zm0-48c0 2.1-.8 4.2-2.3 5.7l-16 16c-3.1 3.1-8.2 3.1-11.3 0-1.5-1.5-2.3-3.5-2.3-5.7v-2.8c0-2.1.8-4.2 2.3-5.7l16-16c1.4-1.5 3.4-2.4 5.5-2.4 1.1 0 2.2.2 3.2.6 3 1.2 5 4.1 4.9 7.4v2.9zm0-48c0 2.1-.8 4.2-2.3 5.7l-16 16c-3.1 3.1-8.2 3.1-11.3 0-1.5-1.5-2.3-3.5-2.3-5.7v-2.8c0-2.1.8-4.2 2.3-5.7l16-16c1.4-1.5 3.4-2.4 5.5-2.4 1.1 0 2.2.2 3.2.6 3 1.2 5 4.1 4.9 7.4v2.9zm0-48c0 2.1-.8 4.2-2.3 5.7l-16 16c-3.1 3.1-8.2 3.1-11.3 0-1.5-1.5-2.3-3.5-2.3-5.7v-2.8c0-2.1.8-4.2 2.3-5.7l16-16c1.4-1.5 3.4-2.4 5.5-2.4 1.1 0 2.2.2 3.2.6 3 1.2 5 4.1 4.9 7.4v2.9z"></path>
    <path d="M186.074 150.107v29.3h8v56h-8v48h128v-48h-8v-56h8v-29.3l-64-27.4-64 27.4zm112 117.3h-96v-16h96v16zm-88-32v-56h16v56h-16zm32 0v-56h16v56h-16zm32 0v-56h16v56h-16zm24-72h-96v-2.7l48-20.6 48 20.6v2.7zm122.6 11c17.8 44.3 17.8 93.7 0 138l14.8 6c19.4-48.1 19.4-101.9 0-150l-14.8 6zm51.5-22l-14.8 6.1c22.2 54.5 22.2 115.5 0 169.9l14.8 6.1c23.9-58.4 23.9-123.8 0-182.1zm-392.7 22l-14.8-6c-7.5 18.6-12.2 38.3-13.9 58.3l15.9 1.3c1.5-18.4 5.8-36.5 12.8-53.6zm-36.7 154c-22.2-54.5-22.2-115.5 0-169.9l-14.8-6.1c-23.9 58.3-23.9 123.7 0 182l14.8-6z"></path>
  </symbol>
  <symbol xmlns="http://www.w3.org/2000/svg" viewBox="0 0 65.402 64.701" id="placanje_pouzecem">
    <rect width="100%" height="100%" fill="none"></rect>
    <path d="M61.052 14.065a.95.95 0 001.9 0 .95.95 0 00-1.9 0zM20.976 4.99c-3.17 0-5.75 2.58-5.75 5.75s2.58 5.751 5.75 5.751 5.75-2.58 5.75-5.75-2.58-5.75-5.75-5.75zm0 9.501a3.755 3.755 0 01-3.75-3.75 3.755 3.755 0 013.75-3.75 3.755 3.755 0 013.75 3.75 3.755 3.755 0 01-3.75 3.75z"></path>
    <path d="M64.931 3.555a1 1 0 00-1-1h-5.417a1 1 0 00-1 1v.585h-2.58a.988.988 0 00-.974.869c-1.02-.117-1.711-.44-5.53-1.809a12.689 12.689 0 00-7.413-.32V1.628a1 1 0 00-1-1c-54.274-.007 15.923 0-38.082 0a1 1 0 00-1 1c-.006 2.039 0 17.968 0 18.229a1 1 0 001 1h38.082a1 1 0 001-1V16.5l4.03-.553c1.468 1.293 3 1.819 4.64 1.819 1.37 0 2.82-.373 4.37-.962a.99.99 0 00.877.544h2.58v.584a1 1 0 001 1h5.417a1 1 0 100-2h-4.417V4.555h4.417a1 1 0 001-1zm-31.46 9.684a3.714 3.714 0 00.711 2.366 7.15 7.15 0 00-1.315 3.248H9.08a7.234 7.234 0 00-6.146-6.15v-3.93A7.234 7.234 0 009.08 2.627h23.787a7.234 7.234 0 006.149 6.146v.828l-2.474.34a3.559 3.559 0 00-3.072 3.298zm5.546-6.497A5.228 5.228 0 0134.9 2.627h4.117v4.115zM7.049 2.627a5.228 5.228 0 01-4.114 4.114V2.627h4.114zM2.935 14.735a5.228 5.228 0 014.115 4.12H2.935v-4.12zm36.082 4.12h-4.123a5.158 5.158 0 01.92-2.06c.627.225 1.29.259 1.69.189l1.513-.208v2.08zm7.06-4.678a.977.977 0 00-.835-.274c-7.227.837-8.173 1.505-9.122.827-.183-.2-.704-.517-.652-1.367a1.558 1.558 0 011.347-1.44l3.327-.458.012-.001 4.68-.64a1.001 1.001 0 00-.272-1.982l-3.544.484-.001-4.366a10.692 10.692 0 016.74.123c4.318 1.547 4.842 1.81 6.177 1.932v7.683c-3.819 1.561-5.867 1.421-7.857-.521zm9.857 1.172V6.14h1.58v9.209h-1.58z"></path>
    <path d="M13.92 9.74h-1.656a1 1 0 100 2h1.655a1 1 0 100-2zm15.768 0h-1.6a1 1 0 100 2h1.6a1 1 0 100-2zM7.277 45.32H3.119A2.19 2.19 0 00.93 47.508v13.614a2.19 2.19 0 002.188 2.189h4.158a2.19 2.19 0 002.187-2.189v-.734h1.106c.296 0 .584.05.858.15l10.082 3.59a3.388 3.388 0 002.8-.254l13.944-7.947c1.352-.635 1.949-2.261 1.305-3.6a2.704 2.704 0 00-3.527-1.337l-7.576 2.372c-.07-1.514-1.37-2.595-2.796-2.595h-5.34c-3.844-1.275-5.43-2.365-8.436-2.365h-2.42v-.894a2.19 2.19 0 00-2.187-2.188zm0 15.99H3.119a.188.188 0 01-.188-.188V47.508c0-.104.084-.188.188-.188h4.158c.103 0 .187.084.187.188v13.614a.188.188 0 01-.187.189zm4.607-10.908c2.511 0 3.753.903 7.916 2.304.11.04.226.06.343.06h5.517c.425 0 .837.342.811.75a.72.72 0 01-.709.667h-5.927a3.38 3.38 0 00-3.376 3.376v.38a1 1 0 102 0v-.38c0-.759.618-1.376 1.376-1.376h5.927c.61 0 10.949-3.303 11.049-3.35a.702.702 0 01.94.35c.16.33.046.747-.417.97L23.32 62.137a1.39 1.39 0 01-1.147.104L12.11 58.657a4.487 4.487 0 00-1.54-.27H9.465v-7.985h2.42z"></path>
    <path d="M51.673 25.67H21.975a1 1 0 00-1 1v20.248a1 1 0 001 1h29.698a1 1 0 001-1V26.67a1 1 0 00-1-1zm-12.184 2v7.157l-2.03-1.662a.998.998 0 00-1.268 0l-2.031 1.663V27.67h5.329zm11.184 18.248H22.975V27.67h9.185v9.27a.998.998 0 001.633.773l3.032-2.481 3.03 2.481a1 1 0 001.634-.773v-9.27h9.184v18.25z"></path>
  </symbol>
  <symbol xmlns="http://www.w3.org/2000/svg" viewBox="0 0 494 494" id="placanje_revolutom">
    <rect width="100%" height="100%" fill="none"></rect>
    <path d="M379.274 133.307c-5.5-2.3-11.6-2.5-17.2-.5v-105.4c0-13.2-10.8-24-24-24h-176c-13.2 0-24 10.8-24 24v154.5c-5.2 1.4-9.9 4.1-13.7 7.9l-43.3 43.3c-4.5 4.5-7 10.6-7 17v68.1c0 6.4-2.5 12.5-7 17l-62.6 62.6 11.3 11.3 62.6-62.7c7.5-7.5 11.7-17.7 11.7-28.3v-68.1c0-2.1.8-4.2 2.3-5.7l43.3-43.3c5.7-5.7 15-5.7 20.7 0s5.7 15 0 20.7l-27.3 27.4c-4.5 4.5-7 10.6-7 17v28.7l10.9 10.9c13.5 13.5 21.1 31.8 21.1 50.9v22.8c0 13.2 10.8 24 24 24h20.7l-9 9c-4.5 4.5-10.6 7-17 7h-13.5c-10.6 0-20.8 4.2-28.3 11.7l-46.6 46.6 11.3 11.3 46.6-46.6c4.5-4.5 10.6-7 17-7h13.5c10.6 0 20.8-4.2 28.3-11.7l20.3-20.3h116.7c13.2 0 24-10.8 24-24v-38.5c3.4-1.2 6.4-3.2 9-5.7l16-16c4.5-4.5 7-10.6 7-17v-2.8c.1-9.3-5.3-17.7-13.7-21.6l6.6-6.6c4.5-4.5 7-10.6 7-17v-2.8c.1-9.3-5.3-17.7-13.7-21.6l6.6-6.6c4.5-4.5 7-10.6 7-17v-2.8c.1-9.3-5.3-17.7-13.7-21.6l6.6-6.6c4.5-4.5 7-10.6 7-17v-2.8c.4-9.7-5.5-18.5-14.5-22.1zm-75.4-113.9l-2.5 9.9c-.9 3.6-4.1 6.1-7.8 6.1h-87c-3.7 0-6.9-2.5-7.8-6.1l-2.5-9.9h107.6zm42.2 360c0 4.4-3.6 8-8 8h-160c-4.4 0-8-3.6-8-8v-22.9c.1-23.4-9.2-45.8-25.8-62.2l-6.2-6.2v-22.1c0-2.1.8-4.2 2.3-5.7l27.3-27.3c12-11.9 12-31.3 0-43.3-3.8-3.8-8.5-6.5-13.7-7.9v-154.4c0-4.4 3.6-8 8-8h17.8l3.5 13.8c2.7 10.7 12.3 18.2 23.3 18.2h87c11 0 20.6-7.5 23.3-18.2l3.5-13.8h17.7c4.4 0 8 3.6 8 8v118.1l-9 9c-4.5 4.5-7 10.6-7 17v2.7c-.1 9.3 5.3 17.7 13.7 21.6l-6.6 6.6c-4.5 4.5-7 10.6-7 17v2.7c-.1 9.3 5.3 17.7 13.7 21.6l-6.6 6.6c-4.5 4.5-7 10.6-7 17v2.7c-.1 9.3 5.3 17.7 13.7 21.6l-6.6 6.6c-4.5 4.5-7 10.6-7 17v2.7c-.1 9.7 5.8 18.5 14.8 22.2.4.2.8.3 1.2.5v38.8zm32-77.2c0 2.1-.8 4.2-2.3 5.7l-16 16c-3.1 3.1-8.2 3.1-11.3 0-1.5-1.5-2.3-3.5-2.3-5.7v-2.8c0-2.1.8-4.2 2.3-5.7l16-16c1.4-1.5 3.4-2.4 5.5-2.4 1.1 0 2.2.2 3.2.6 3 1.2 5 4.1 4.9 7.4v2.9zm0-48c0 2.1-.8 4.2-2.3 5.7l-16 16c-3.1 3.1-8.2 3.1-11.3 0-1.5-1.5-2.3-3.5-2.3-5.7v-2.8c0-2.1.8-4.2 2.3-5.7l16-16c1.4-1.5 3.4-2.4 5.5-2.4 1.1 0 2.2.2 3.2.6 3 1.2 5 4.1 4.9 7.4v2.9zm0-48c0 2.1-.8 4.2-2.3 5.7l-16 16c-3.1 3.1-8.2 3.1-11.3 0-1.5-1.5-2.3-3.5-2.3-5.7v-2.8c0-2.1.8-4.2 2.3-5.7l16-16c1.4-1.5 3.4-2.4 5.5-2.4 1.1 0 2.2.2 3.2.6 3 1.2 5 4.1 4.9 7.4v2.9zm0-48c0 2.1-.8 4.2-2.3 5.7l-16 16c-3.1 3.1-8.2 3.1-11.3 0-1.5-1.5-2.3-3.5-2.3-5.7v-2.8c0-2.1.8-4.2 2.3-5.7l16-16c1.4-1.5 3.4-2.4 5.5-2.4 1.1 0 2.2.2 3.2.6 3 1.2 5 4.1 4.9 7.4v2.9zm42.6 16.2c17.8 44.3 17.8 93.7 0 138l14.8 6c19.4-48.1 19.4-101.9 0-150l-14.8 6zm51.5-22l-14.8 6.1c22.2 54.5 22.2 115.5 0 169.9l14.8 6.1c23.9-58.4 23.9-123.8 0-182.1z"></path>
    <path d="M79.474 174.407l-14.8-6c-7.5 18.6-12.2 38.3-13.9 58.3l15.9 1.3c1.5-18.4 5.8-36.5 12.8-53.6zm-36.7 154c-22.2-54.5-22.2-115.5 0-169.9l-14.8-6.1c-23.9 58.3-23.9 123.7 0 182l14.8-6z"></path>
    <g fill-rule="evenodd">
      <path d="M247.035 165.22c-1.928 13.571-3.47 24.997-6.246 42.79 7.502-.162 24.528 2.825 28.276-21.493 3.102-20.231-10.727-22.105-22.03-21.297z"></path>
      <path d="M312.005 263.056c2.92 6.497-.02 14.711-6.11 18.018-3.496 1.9-7.488 3.666-11.473 4.657a96.267 96.267 0 01-20.069 2.607c-10.814 0-21.656-6.192-26.327-13.728-1.208 2.6-5.567 7.828-13.205 10.286-4.827 1.561-10.645 3.442-22.79 3.428-10.883-.007-17.088-4.942-20.367-9.083-5.227-6.586-5.995-14.95-4.976-20.585l.054-.271c4.107-20.605 9.722-58.066 12.308-76.837l.028-.184c.706-5.207 1.425-10.414 1.853-15.655.21-2.641.353-5.295.38-7.943.027-2.505-.203-5.004-.183-7.509.027-2.362.407-4.752 1.514-6.843 1.799-3.374 5.092-6.035 8.574-7.196 3.822-1.277 7.814-1.786 11.786-2.247a314.824 314.824 0 0112.206-1.222 207.043 207.043 0 0114.936-.557c8.527-.007 17.108.136 25.513 1.867 8.56 1.765 17.21 5.14 23.965 11.052 4.63 4.053 8.303 9.165 11.066 14.76 2.417 4.928 3.401 10.115 3.985 14.08a58.86 58.86 0 01-.808 21.378 46.864 46.864 0 01-6.198 14.406c-3.218 4.997-7.346 9.532-12.607 13.85 3.204 9.3 11.555 27.468 16.945 39.47zM216.24 151.2c.204 3.449.23 6.925.082 10.387-.15 3.537-.455 7.06-.85 10.577-.386 3.503-.854 6.993-1.33 10.482l-.156 1.14a2280.284 2280.284 0 01-4.718 32.683c-1.738 11.433-3.687 22.804-5.635 34.19-.903 5.308-2.933 12.11-.156 17.175 2.471 4.522 8.812 5.071 13.232 4.617 16.096-1.643 18.656-5.221 18.656-5.221-3.212-3.557-.421-19.77 2.81-41.562h11.44l11.975 36.219s3.53 11.222 13.34 10.679c12.567-.692 21.813-3.564 23.144-5.16-3.87-2.158-14.936-29.83-20.964-50.15 2.92-1.778 5.75-3.713 8.418-5.879 3.646-2.973 7.027-6.402 9.613-10.428 1.86-2.892 3.28-6.076 4.094-9.457.428-1.785.665-3.652.815-5.478a42.25 42.25 0 00-.299-9.668c-.448-3.068-1.12-6.483-2.492-9.253-2.545-5.18-6.15-9.702-11.066-12.594-8.296-4.874-17.855-5.804-27.176-6.313a171.984 171.984 0 00-30.299.99c-1.127.137-12.525 1.141-12.478 2.024z"></path>
    </g>
  </symbol>
  <symbol xmlns="http://www.w3.org/2000/svg" viewBox="0 0 38 24" id="visa">
    <title>Visa</title>
    <path opacity=".07" d="M35 0H3C1.3 0 0 1.3 0 3v18c0 1.7 1.4 3 3 3h32c1.7 0 3-1.3 3-3V3c0-1.7-1.4-3-3-3z"></path>
    <path fill="#fff" d="M35 1c1.1 0 2 .9 2 2v18c0 1.1-.9 2-2 2H3c-1.1 0-2-.9-2-2V3c0-1.1.9-2 2-2h32"></path>
    <path d="M28.3 10.1H28c-.4 1-.7 1.5-1 3h1.9c-.3-1.5-.3-2.2-.6-3zm2.9 5.9h-1.7c-.1 0-.1 0-.2-.1l-.2-.9-.1-.2h-2.4c-.1 0-.2 0-.2.2l-.3.9c0 .1-.1.1-.1.1h-2.1l.2-.5L27 8.7c0-.5.3-.7.8-.7h1.5c.1 0 .2 0 .2.2l1.4 6.5c.1.4.2.7.2 1.1.1.1.1.1.1.2zm-13.4-.3l.4-1.8c.1 0 .2.1.2.1.7.3 1.4.5 2.1.4.2 0 .5-.1.7-.2.5-.2.5-.7.1-1.1-.2-.2-.5-.3-.8-.5-.4-.2-.8-.4-1.1-.7-1.2-1-.8-2.4-.1-3.1.6-.4.9-.8 1.7-.8 1.2 0 2.5 0 3.1.2h.1c-.1.6-.2 1.1-.4 1.7-.5-.2-1-.4-1.5-.4-.3 0-.6 0-.9.1-.2 0-.3.1-.4.2-.2.2-.2.5 0 .7l.5.4c.4.2.8.4 1.1.6.5.3 1 .8 1.1 1.4.2.9-.1 1.7-.9 2.3-.5.4-.7.6-1.4.6-1.4 0-2.5.1-3.4-.2-.1.2-.1.2-.2.1zm-3.5.3c.1-.7.1-.7.2-1 .5-2.2 1-4.5 1.4-6.7.1-.2.1-.3.3-.3H18c-.2 1.2-.4 2.1-.7 3.2-.3 1.5-.6 3-1 4.5 0 .2-.1.2-.3.2M5 8.2c0-.1.2-.2.3-.2h3.4c.5 0 .9.3 1 .8l.9 4.4c0 .1 0 .1.1.2 0-.1.1-.1.1-.1l2.1-5.1c-.1-.1 0-.2.1-.2h2.1c0 .1 0 .1-.1.2l-3.1 7.3c-.1.2-.1.3-.2.4-.1.1-.3 0-.5 0H9.7c-.1 0-.2 0-.2-.2L7.9 9.5c-.2-.2-.5-.5-.9-.6-.6-.3-1.7-.5-1.9-.5L5 8.2z" fill="#142688"></path>
  </symbol>
  <symbol xmlns="http://www.w3.org/2000/svg" viewBox="0 0 128 128" id="whatsapp">
    <circle cx="64" cy="64" fill="#25D366" r="64"></circle>
    <path d="M92.346 35.49c-7.522-7.53-17.523-11.678-28.179-11.683-21.954 0-39.826 17.868-39.833 39.831a39.743 39.743 0 005.316 19.913L24 104.193l21.115-5.538a39.837 39.837 0 0019.036 4.847h.017c21.954 0 39.823-17.871 39.832-39.833.005-10.642-4.136-20.65-11.654-28.179M64.168 96.774h-.013a33.062 33.062 0 01-16.853-4.614l-1.209-.718-12.53 3.287 3.343-12.216-.787-1.256a32.998 32.998 0 01-5.062-17.619c.006-18.253 14.859-33.104 33.121-33.104 8.844.002 17.155 3.451 23.407 9.71 6.251 6.258 9.691 14.575 9.689 23.422-.006 18.256-14.859 33.108-33.106 33.108m18.16-24.795c-.996-.499-5.889-2.904-6.802-3.239-.913-.332-1.574-.497-2.238.499s-2.571 3.239-3.153 3.903c-.58.664-1.16.748-2.156.249s-4.202-1.549-8.001-4.941c-2.96-2.637-4.958-5.899-5.538-6.895s-.062-1.533.437-2.03c.448-.446.996-1.162 1.493-1.744.497-.582.663-.997.995-1.66.332-.664.167-1.245-.083-1.743-.25-.499-2.24-5.398-3.068-7.391-.809-1.941-1.629-1.678-2.239-1.708a41.082 41.082 0 00-1.908-.036c-.663 0-1.742.249-2.654 1.246-.911.996-3.483 3.403-3.483 8.304 0 4.898 3.566 9.632 4.064 10.295.498.663 7.018 10.718 17.002 15.029a57.94 57.94 0 005.674 2.097c2.384.759 4.554.65 6.27.394 1.912-.285 5.888-2.407 6.719-4.732.829-2.324.829-4.316.578-4.732-.251-.417-.915-.666-1.909-1.165" fill="#FFF"></path>
  </symbol>
  <symbol xmlns="http://www.w3.org/2000/svg" viewBox="0 0 32 32" id="xlm">
    <g fill="none">
      <circle cx="16" cy="16" r="16" fill="#000"></circle>
      <path d="M23.13 9.292l-2.4 1.224-11.598 5.907A6.909 6.909 0 0119.35 9.498l1.374-.7.205-.105a8.439 8.439 0 00-13.371 7.472 1.535 1.535 0 01-.834 1.484l-.725.37v1.724l2.134-1.088.691-.353.681-.347 12.226-6.23 1.374-.699 2.84-1.447V7.856L23.13 9.292zm2.816 2.012L10.201 19.32l-1.374.7L6 21.463v1.723l2.808-1.43 2.401-1.224 11.61-5.916a6.909 6.909 0 01-10.229 6.93l-.085.045-1.49.76a8.439 8.439 0 0013.372-7.475 1.536 1.536 0 01.833-1.483l.726-.37v-1.718z" fill="#FFF"></path>
    </g>
  </symbol>
  <symbol xmlns="http://www.w3.org/2000/svg" viewBox="0 0 32 32" id="xrp">
    <g fill="none">
      <circle cx="16" cy="16" r="16" fill="#23292F"></circle>
      <path d="M23.07 8h2.89l-6.015 5.957a5.621 5.621 0 01-7.89 0L6.035 8H8.93l4.57 4.523a3.556 3.556 0 004.996 0L23.07 8zM8.895 24.563H6l6.055-5.993a5.621 5.621 0 017.89 0L26 24.562h-2.895L18.5 20a3.556 3.556 0 00-4.996 0l-4.61 4.563z" fill="#FFF"></path>
    </g>
  </symbol>
</svg>